<svg id="Layer_1" data-name="Layer 1" xmlns="http://www.w3.org/2000/svg" width="36.523" height="55.597" viewBox="0 0 36.523 55.597"><title>esrb</title><rect width="35.552" height="55.597" style="fill:#fff"/><polyline points="36.523 0 36.523 55.597 0 55.597 0 0 36.523 0" style="fill:#231f20"/><rect x="1.716" y="1.976" width="32.809" height="9.219" style="fill:#fff"/><rect x="1.702" y="13.206" width="32.828" height="33.891" style="fill:#fff"/><path d="M1.708,53.592v-4.5H8.3v1.054H4.356v.643H7.693v1.05H4.356v.7h4.1v1.05ZM16.569,50.4c-.193-.788-1.216-1.423-3.458-1.423-2.022,0-3.5.479-3.5,1.435,0,1.715,4.651,1.248,4.651,1.929,0,.213-.441.331-1.1.331a2.415,2.415,0,0,1-.754-.114.641.641,0,0,1-.439-.354H9.428c.056.813,1.447,1.506,3.579,1.506,2.22,0,3.783-.509,3.783-1.551,0-1.637-4.648-1.22-4.648-1.885,0-.168.26-.262.843-.262a2.416,2.416,0,0,1,.684.083.5.5,0,0,1,.382.3Zm4.185-.258h1.234c.618,0,1.067.153,1.067.47s-.44.429-1.259.429H20.754Zm.809,1.879c1.233,0,1.413.191,1.413.782a1.725,1.725,0,0,0,.133.786h2.684v-.136c-.314,0-.28-.2-.28-.789,0-.907-.517-1.014-1.368-1.185.943-.152,1.356-.584,1.356-1.1,0-.874-.888-1.287-3.578-1.287H18.106v4.5h2.648V52.024Zm9.148-1.879c.556,0,1.078.007,1.078.359,0,.259-.383.394-.911.394h-1.1v-.753Zm-.094,1.568c.846,0,1.462.024,1.462.417,0,.335-.492.412-1.149.412H29.775v-.829Zm.45,1.879c2.1,0,3.479-.355,3.479-1.358,0-.482-.469-.9-1.343-1.03.515-.175,1.055-.512,1.055-.977,0-.891-1.448-1.136-3.267-1.136H27.129v4.5Z" style="fill:#fff"/><path d="M4.411,21.41l25.4-6.334,1.953,6.769L23.6,23.879,29.073,42.9l-9.08,2.266L14.518,26.143,6.362,28.179ZM26.805,9.191H29.01l-.047-1.61L28.921,6.35l2.506,2.841h2.155V3.976H31.377V5.633l.086,1.191-2.5-2.848H26.805Zm-7.769,0h5.855V7.973H21.334V7.156h2.895V5.939H21.334V5.188h3.421V3.976H19.036ZM11,9.191h5.858V7.973H13.3V7.156h2.894V5.939H13.3V5.188h3.422V3.976H11ZM2.611,5.345H4.676V9.191h2.3V5.345H9.043V3.976H2.611Zm28.763,38.9v-.5h.394c.264,0,.339.079.339.227s-.075.27-.382.278Zm0,.309h.276a.5.5,0,0,1,.31.072c.1.09.1.25.119.42a2.776,2.776,0,0,0,.069.35h.419a2.672,2.672,0,0,1-.125-.564c-.032-.212-.071-.338-.356-.39v-.005a.465.465,0,0,0,.425-.463c0-.444-.4-.544-.783-.544h-.684V45.4h.33v-.842m.365-1.5a1.4,1.4,0,1,0,1.4,1.4,1.4,1.4,0,0,0-1.4-1.4m0-.286a1.683,1.683,0,1,1-1.681,1.683,1.686,1.686,0,0,1,1.681-1.683Z" style="fill:#231f20"/></svg>